<svg xmlns="http://www.w3.org/2000/svg" width="170" height="72" viewBox="0 0 170 72"><g><g><path fill="#ececec" d="M169.15 1.864L85.87 49.81a1 1 0 0 1-.712.111.997.997 0 0 1-.712-.111L1.292 1.864a.998.998 0 1 1 1-1.73l82.867 47.78L168.148.133a1.003 1.003 0 0 1 1.368.365.998.998 0 0 1-.366 1.365z"/></g><g><path fill="#ececec" d="M169.15 23.839L85.87 71.785a1 1 0 0 1-.712.111.997.997 0 0 1-.712-.11L1.292 23.838a.998.998 0 1 1 1-1.73l82.867 47.78 82.989-47.78a1.003 1.003 0 0 1 1.368.365.998.998 0 0 1-.366 1.365z"/></g></g></svg>